Coordinates
version=1
nRows=16
nColumns=40
inDegrees=yes

Units are S.I. units (second, meters, Newtons, ...)
Angles are in degrees.

endheader
time	pelvis_tilt	pelvis_list	pelvis_rotation	pelvis_tx	pelvis_ty	pelvis_tz	hip_flexion_r	hip_adduction_r	hip_rotation_r	knee_angle_r	knee_angle_r_beta	ankle_angle_r	subtalar_angle_r	mtp_angle_r	hip_flexion_l	hip_adduction_l	hip_rotation_l	knee_angle_l	knee_angle_l_beta	ankle_angle_l	subtalar_angle_l	mtp_angle_l	lumbar_extension	lumbar_bending	lumbar_rotation	arm_flex_r	arm_add_r	arm_rot_r	elbow_flex_r	pro_sup_r	wrist_flex_r	wrist_dev_r	arm_flex_l	arm_add_l	arm_rot_l	elbow_flex_l	pro_sup_l	wrist_flex_l	wrist_dev_l
     26.73000000	     -5.82266373	     -4.51222011	     -3.19745185	      1.06097541	      0.93238000	      0.42857648	     31.67529960	     -4.80987084	     -3.57283395	     69.82676044	     69.82676044	     -1.50610195	    -13.77518941	     -1.18035692	     17.03588966	     -4.96858132	     -6.65502607	     22.68121336	     22.68121336	     13.39551205	    -13.56165841	      4.93660061	    -10.76610071	      6.45733203	      3.89109765	     12.09997024	    -14.09412662	     -3.10268876	     77.82034409	     44.72489114	      0.00000000	      0.00000000	      7.95941249	    -16.08319360	      3.12647469	     55.50744472	     45.87584767	      0.00000000	      0.00000000
     26.74150000	     -5.70339954	     -4.52009454	     -3.53961683	      1.05971598	      0.93317279	      0.42840030	     32.99167533	     -4.65364809	     -3.57022459	     68.83245681	     68.83245681	     -1.41044323	    -13.72794391	     -1.42543402	     15.94818553	     -4.90903214	     -6.87118165	     21.95429616	     21.95429616	     13.59973302	    -13.63164729	      4.95676146	    -10.96100327	      6.47542275	      4.20452068	     10.94460854	    -14.13089492	     -3.27121123	     72.79462450	     44.91400849	      0.00000000	      0.00000000	      9.84236220	    -16.61765551	      3.40483824	     57.49520241	     45.94325229	      0.00000000	      0.00000000
     26.75300000	     -5.57649198	     -4.55901840	     -3.86983015	      1.05845670	      0.93382577	      0.42834127	     34.18093684	     -4.42232930	     -3.58258292	     67.65647045	     67.65647045	     -1.33104954	    -13.67588426	     -1.36836770	     14.93681331	     -4.93724200	     -7.26876238	     21.38978573	     21.38978573	     13.86010422	    -13.39034394	      4.70355008	    -11.16036113	      6.47902802	      4.16151637	     10.40187289	    -13.97030599	     -3.13831159	     66.86370676	     45.12621236	      0.00000000	      0.00000000	     11.36013751	    -17.37194711	      3.53900325	     59.92583806	     46.04572463	      0.00000000	      0.00000000
     26.76450000	     -5.42996000	     -4.62372907	     -4.19590401	      1.05722584	      0.93440226	      0.42827052	     35.19375523	     -4.15580938	     -3.60793193	     66.22808494	     66.22808494	     -1.23366283	    -13.53030985	     -1.13269480	     13.91911175	     -4.97130295	     -7.62592126	     20.84067187	     20.84067187	     14.16135531	    -13.19410151	      4.61772162	    -11.47483862	      6.55645835	      4.89535049	      8.79694380	    -14.55341089	     -2.92033635	     63.23119333	     45.23974753	      0.00000000	      0.00000000	     13.53029724	    -17.41678088	      3.24976154	     61.88227841	     46.13053715	      0.00000000	      0.00000000
     26.77600000	     -5.36959089	     -4.71750271	     -4.41779015	      1.05593136	      0.93475516	      0.42833569	     36.13819034	     -3.89787408	     -3.76150351	     64.54133457	     64.54133457	     -1.05093495	    -13.28045431	     -0.53881216	     13.08679344	     -5.06590628	     -7.98652594	     20.40398971	     20.40398971	     14.35642054	    -12.91237324	      4.18684341	    -11.52735304	      6.60209901	      4.21353318	      9.62710469	    -13.83186255	     -2.89768960	     54.99357778	     45.53416642	      0.00000000	      0.00000000	     14.73080061	    -18.58342609	      3.56343314	     64.02372542	     46.21191900	      0.00000000	      0.00000000
     26.78750000	     -5.32946743	     -4.77081881	     -4.62985799	      1.05464714	      0.93493156	      0.42840440	     36.94555275	     -3.66899000	     -3.87908704	     62.53592656	     62.53592656	     -0.90237776	    -12.96388382	     -0.16591326	     12.27118256	     -5.09362263	     -8.26823338	     19.94758080	     19.94758080	     14.64467485	    -12.63072128	      3.89112070	    -11.67281872	      6.62657641	      4.41256659	      8.95798032	    -13.97460489	     -2.56957927	     49.97716977	     45.69421607	      0.00000000	      0.00000000	     16.43965703	    -18.91135109	      3.18549472	     66.21360290	     46.33091874	      0.00000000	      0.00000000
     26.79900000	     -5.23035090	     -4.99544604	     -4.77935178	      1.05347665	      0.93521355	      0.42854440	     37.40803223	     -3.31783342	     -4.16285929	     60.07177601	     60.07177601	     -0.80099939	    -12.48824503	      0.08035321	     11.37800099	     -5.28722007	     -8.43406900	     19.47143301	     19.47143301	     14.93938533	    -12.41263872	      3.75718488	    -11.96053823	      6.91983895	      4.77901003	      7.57376038	    -14.40899347	     -2.39502694	     47.06441200	     45.78377493	      0.00000000	      0.00000000	     18.31231210	    -19.00366538	      2.93054863	     67.93287198	     46.40220679	      0.00000000	      0.00000000
     26.81050000	     -5.30239958	     -5.06946580	     -4.89662579	      1.05222736	      0.93503818	      0.42878706	     37.93057878	     -3.09598664	     -4.36599919	     57.32488230	     57.32488230	     -0.77456678	    -12.00644571	     -0.13044623	     10.74359840	     -5.37510255	     -8.76598692	     19.09112195	     19.09112195	     15.11494656	    -11.98923218	      3.08420501	    -11.85051396	      6.97467280	      4.21964030	      8.53770856	    -13.89043271	     -2.27907392	     38.89551323	     46.08025291	      0.00000000	      0.00000000	     19.56462056	    -20.21922701	      3.55171563	     69.96779696	     46.46060966	      0.00000000	      0.00000000
     26.82200000	     -5.28498332	     -5.22492500	     -4.94007941	      1.05115848	      0.93497740	      0.42896301	     38.08314881	     -2.87817960	     -4.74382933	     54.15492401	     54.15492401	     -0.57924206	    -11.15665543	     -0.02330707	      9.97350963	     -5.48371200	     -8.83334569	     18.64730132	     18.64730132	     15.41366638	    -11.78400676	      2.93870338	    -12.00992325	      7.19281691	      4.39288884	      6.94093909	    -14.27423995	     -2.21164102	     36.94949867	     46.13888607	      0.00000000	      0.00000000	     21.29145873	    -20.29034591	      3.15133786	     71.62751743	     46.53750612	      0.00000000	      0.00000000
     26.83350000	     -5.34071254	     -5.24647295	     -4.97785170	      1.05018872	      0.93464410	      0.42928734	     38.09187280	     -2.73206415	     -5.01287759	     50.58156955	     50.58156955	     -0.76041800	    -10.43770938	     -1.34137763	      9.26396037	     -5.48751274	     -9.06534833	     18.15490257	     18.15490257	     15.48869194	    -11.42311509	      2.17762842	    -11.96964649	      7.21511524	      3.98071681	      7.28809152	    -13.95240620	     -2.44834710	     30.50510198	     46.39871854	      0.00000000	      0.00000000	     22.45237631	    -21.24869581	      3.37310480	     74.03369856	     46.66144487	      0.00000000	      0.00000000
     26.84500000	     -5.38628666	     -5.25210401	     -4.98119072	      1.04941630	      0.93428574	      0.42958513	     37.87979950	     -2.64636923	     -5.39149661	     46.75105124	     46.75105124	     -0.49437398	     -9.15701904	     -1.37021041	      8.51795818	     -5.44992920	     -9.23826094	     17.63605174	     17.63605174	     15.74675857	    -11.04741305	      1.92937083	    -12.00277325	      7.25956481	      4.19655273	      5.63915582	    -14.24785471	     -2.46626153	     28.69676986	     46.45908962	      0.00000000	      0.00000000	     24.11004858	    -21.34369020	      3.25456248	     75.78333832	     46.73015656	      0.00000000	      0.00000000
     26.85650000	     -5.43669304	     -5.31673051	     -4.91155846	      1.04882193	      0.93386064	      0.42990559	     37.39141614	     -2.48729682	     -5.83563829	     42.57879989	     42.57879989	     -0.24181948	     -7.67428921	     -1.20306921	      7.76946476	     -5.47107838	     -9.28028529	     17.11987607	     17.11987607	     16.02168414	    -10.64449404	      1.65463591	    -12.02728581	      7.41005019	      4.14259705	      4.05102696	    -14.50736496	     -2.45716511	     27.16163807	     46.50977275	      0.00000000	      0.00000000	     25.54740880	    -21.58849665	      3.33718260	     77.25265148	     46.77047569	      0.00000000	      0.00000000
     26.86800000	     -5.52838591	     -5.29223578	     -4.82431625	      1.04859003	      0.93316914	      0.43038940	     36.74097571	     -2.41548300	     -6.46407783	     38.27300782	     38.27300782	      0.05946010	     -6.20854022	     -0.86999971	      7.01855040	     -5.40866934	     -9.44152818	     16.54220889	     16.54220889	     16.27997034	    -10.23902916	      1.36848457	    -11.80680124	      7.39845751	      4.08862876	      2.44952531	    -14.63640874	     -2.43209719	     25.81423384	     46.55221336	      0.00000000	      0.00000000	     26.97024906	    -21.94476338	      3.46616745	     78.70574550	     46.80469796	      0.00000000	      0.00000000
     26.87950000	     -5.57040435	     -5.20023721	     -4.70631344	      1.04860803	      0.93236251	      0.43090366	     35.86796571	     -2.36498609	     -7.04423186	     33.92851713	     33.92851713	      0.32669572	     -4.48581730	     -0.37961942	      6.16287757	     -5.26296012	     -9.56686155	     15.89227874	     15.89227874	     16.53944264	     -9.71675225	      1.01251616	    -11.70255028	      7.33459939	      4.03377709	      0.80244172	    -14.70415259	     -2.40798927	     24.54924938	     46.59152968	      0.00000000	      0.00000000	     28.33940490	    -22.27233235	      3.75223048	     80.26330674	     46.83127814	      0.00000000	      0.00000000
     26.89100000	     -5.46269964	     -4.95991006	     -4.56397622	      1.04906718	      0.93145637	      0.43147838	     34.78722512	     -2.53364967	     -7.90297283	     29.88195010	     29.88195010	      0.74470514	     -2.23644227	      0.40485863	      5.01965542	     -4.95801540	     -9.93027817	     15.03003401	     15.03003401	     16.62907966	     -8.88584259	      0.07609911	    -11.71525491	      7.01795065	      4.15198179	     -0.84578547	    -14.70101643	     -2.49767243	     22.92338995	     46.66195001	      0.00000000	      0.00000000	     29.66840765	    -22.92938022	      5.15596353	     82.55311983	     46.82657369	      0.00000000	      0.00000000
     26.90250000	     -5.48297551	     -4.83950297	     -4.35799938	      1.04966512	      0.93024224	      0.43225115	     33.67957646	     -2.42773300	     -8.62032632	     25.92640673	     25.92640673	      0.86060746	     -0.78302302	      1.45037767	      4.13367482	     -4.79570075	     -9.93660731	     14.42137878	     14.42137878	     16.91555330	     -8.42922326	     -0.30019190	    -11.50275287	      6.90926550	      3.89409733	     -2.51206286	    -14.65028521	     -2.54656728	     22.27084214	     46.67955130	      0.00000000	      0.00000000	     30.77585003	    -23.29393405	      5.29860680	     83.70725577	     46.85662877	      0.00000000	      0.00000000
